<svg width="657.9px" height="122px" xmlns="http://www.w3.org/2000/svg" viewBox="-78.94687499999998 14 657.89375 122" style="background: rgba(0, 0, 0, 0)" preserveAspectRatio="xMidYMid"><defs><linearGradient id="editing-gradient-gradient" x1="0" x2="1" y1="0.5" y2="0.5" gradientUnits="objectBoundingBox"><stop offset="0" stop-color="#51b3e6"></stop><stop offset="1" stop-color="#e64dde"></stop></linearGradient></defs><g><g transform="matrix(1.4,0,0,1.4,-108.7,-92.4)"><path d="M 44.7 137.1 L 30.8 137.1 L 38.9 94.8 L 53 94.8 L 44.7 137.1 Z M 100.5 138.4 L 100.5 138.4 L 100.5 138.4 Q 92.7 138.4 92.7 132.3 L 92.7 132.3 L 92.7 132.3 Q 92.7 129.7 93.9 124.6 L 93.9 124.6 L 93.9 124.6 Q 95 119.5 95.4 117.5 L 95.4 117.5 L 95.4 117.5 Q 96.3 112.8 96.3 111.3 L 96.3 111.3 L 96.3 111.3 Q 96.3 108.1 93.8 108.1 L 93.8 108.1 L 93.8 108.1 Q 92.2 108.1 90.7 110.3 L 90.7 110.3 L 90.7 110.3 Q 89.2 112.5 88.5 116.9 L 88.5 116.9 L 84.5 137.1 L 72 138.4 L 75.5 120.9 L 75.5 120.9 Q 76 118.1 76.5 114.8 L 76.5 114.8 L 76.5 114.8 Q 77.1 111.5 77.1 111 L 77.1 111 L 77.1 111 Q 77.1 108.1 74.9 108.1 L 74.9 108.1 L 74.9 108.1 Q 73.4 108.1 71.8 110.3 L 71.8 110.3 L 71.8 110.3 Q 70.2 112.4 69.3 116.9 L 69.3 116.9 L 65.4 137.1 L 52.8 138.4 L 59.5 104.4 L 70 103.2 L 68.9 109.6 L 68.9 109.6 Q 70.5 106.2 73.6 104.7 L 73.6 104.7 L 73.6 104.7 Q 76.7 103.2 81.5 103.2 L 81.5 103.2 L 81.5 103.2 Q 84.2 103.2 86 104.5 L 86 104.5 L 86 104.5 Q 87.8 105.8 88.4 108 L 88.4 108 L 88.4 108 Q 89.5 105.8 92.3 104.5 L 92.3 104.5 L 92.3 104.5 Q 95 103.2 98.5 103.2 L 98.5 103.2 L 98.5 103.2 Q 101.9 103.2 103.6 103.9 L 103.6 103.9 L 103.6 103.9 Q 105.3 104.6 106.3 105.8 L 106.3 105.8 L 106.3 105.8 Q 108 108.1 108 112.2 L 108 112.2 L 108 112.2 Q 108 116.2 106.3 124.6 L 106.3 124.6 L 106.3 124.6 Q 105.4 128.7 105.4 130.2 L 105.4 130.2 L 105.4 130.2 Q 105.4 131.7 106.3 132.6 L 106.3 132.6 L 106.3 132.6 Q 107.1 133.5 108.4 133.6 L 108.4 133.6 L 108.4 133.6 Q 107.8 135.8 105.6 137.1 L 105.6 137.1 L 105.6 137.1 Q 103.4 138.4 100.5 138.4 Z M 116.1 135.2 L 116.1 135.2 L 116.1 135.2 Q 114.6 133.5 114 130.9 L 114 130.9 L 114 130.9 Q 113.3 128.2 113.3 124 L 113.3 124 L 113.3 124 Q 113.3 119.7 114.8 115.8 L 114.8 115.8 L 114.8 115.8 Q 116.2 111.9 118.9 109 L 118.9 109 L 118.9 109 Q 124.4 103.2 133.5 103.2 L 133.5 103.2 L 133.5 103.2 Q 136.8 103.2 139.1 104.2 L 139.1 104.2 L 150.1 103.2 L 145.3 128.1 L 145.3 128.1 Q 145.2 128.9 145.2 130.3 L 145.2 130.3 L 145.2 130.3 Q 145.2 131.7 146 132.6 L 146 132.6 L 146 132.6 Q 146.9 133.5 148.2 133.6 L 148.2 133.6 L 148.2 133.6 Q 147.5 135.8 145.2 137.1 L 145.2 137.1 L 145.2 137.1 Q 142.9 138.4 140.2 138.4 L 140.2 138.4 L 140.2 138.4 Q 137.6 138.4 135.8 137.4 L 135.8 137.4 L 135.8 137.4 Q 134.1 136.4 133.6 134.7 L 133.6 134.7 L 133.6 134.7 Q 132.5 136.3 130.4 137.3 L 130.4 137.3 L 130.4 137.3 Q 128.2 138.4 125.3 138.4 L 125.3 138.4 L 125.3 138.4 Q 122.4 138.4 120 137.6 L 120 137.6 L 120 137.6 Q 117.6 136.8 116.1 135.2 Z M 129.6 109.2 L 129.6 109.2 L 129.6 109.2 Q 128.9 110.3 128.3 112.3 L 128.3 112.3 L 128.3 112.3 Q 127.6 114.2 126.6 119.4 L 126.6 119.4 L 126.6 119.4 Q 125.5 124.7 125.5 128.4 L 125.5 128.4 L 125.5 128.4 Q 125.5 132.1 126.1 133.2 L 126.1 133.2 L 126.1 133.2 Q 126.7 134.3 127.7 134.3 L 127.7 134.3 L 127.7 134.3 Q 129.7 134.3 131.2 132.3 L 131.2 132.3 L 131.2 132.3 Q 132.7 130.4 133.3 126.9 L 133.3 126.9 L 136.7 108.1 L 136.7 108.1 Q 135.4 107 133.8 107 L 133.8 107 L 133.8 107 Q 132.2 107 131.3 107.5 L 131.3 107.5 L 131.3 107.5 Q 130.4 108 129.6 109.2 Z M 157.8 110.3 L 157.8 110.3 L 157.8 110.3 Q 160 107.3 163.3 105.2 L 163.3 105.2 L 163.3 105.2 Q 166.6 103.2 170.6 103.2 L 170.6 103.2 L 170.6 103.2 Q 174.7 103.2 176.6 104.4 L 176.6 104.4 L 189.1 103.2 L 184.8 127.7 L 184.8 127.7 Q 182.5 140.3 177.8 145.2 L 177.8 145.2 L 177.8 145.2 Q 173.3 149.9 164.4 149.9 L 164.4 149.9 L 164.4 149.9 Q 157.7 149.9 153.9 147.8 L 153.9 147.8 L 153.9 147.8 Q 150 145.7 150 142.1 L 150 142.1 L 150 142.1 Q 150 139.5 152 138 L 152 138 L 152 138 Q 154 136.5 157.1 136.5 L 157.1 136.5 L 157.1 136.5 Q 159.7 136.5 161.8 137.7 L 161.8 137.7 L 161.8 137.7 Q 163 138.4 163.6 139.3 L 163.6 139.3 L 163.6 139.3 Q 162.1 140.5 162.1 142.6 L 162.1 142.6 L 162.1 142.6 Q 162.1 145.4 164.7 145.4 L 164.7 145.4 L 164.7 145.4 Q 169 145.4 171.4 135.3 L 171.4 135.3 L 171.4 135.3 Q 172.1 132.5 172.7 129.8 L 172.7 129.8 L 172.7 129.8 Q 169.8 133.3 163.3 133.3 L 163.3 133.3 L 163.3 133.3 Q 158.7 133.3 156.1 131.1 L 156.1 131.1 L 156.1 131.1 Q 153.5 128.9 153.5 123.8 L 153.5 123.8 L 153.5 123.8 Q 153.5 120.6 154.6 117 L 154.6 117 L 154.6 117 Q 155.7 113.4 157.8 110.3 Z M 166.1 124 L 166.1 124 L 166.1 124 Q 166.1 128.4 168.4 128.4 L 168.4 128.4 L 168.4 128.4 Q 169.9 128.4 171.4 126.7 L 171.4 126.7 L 171.4 126.7 Q 172.5 125.4 173 123.4 L 173 123.4 L 176.3 106.9 L 176.3 106.9 Q 175.9 106.9 175.6 106.7 L 175.6 106.7 L 175.6 106.7 Q 175 106.5 174.1 106.5 L 174.1 106.5 L 174.1 106.5 Q 170.2 106.5 167.9 112.9 L 167.9 112.9 L 167.9 112.9 Q 166.1 117.9 166.1 124 Z M 217.5 126.3 L 217.5 126.3 L 217.5 126.3 Q 219.1 127.3 219.1 129.7 L 219.1 129.7 L 219.1 129.7 Q 219.1 132.1 217.9 133.7 L 217.9 133.7 L 217.9 133.7 Q 216.7 135.2 214.7 136.2 L 214.7 136.2 L 214.7 136.2 Q 210.6 138.4 206.2 138.4 L 206.2 138.4 L 206.2 138.4 Q 201.8 138.4 199.2 137.4 L 199.2 137.4 L 199.2 137.4 Q 196.6 136.4 194.9 134.6 L 194.9 134.6 L 194.9 134.6 Q 191.5 131.3 191.5 125 L 191.5 125 L 191.5 125 Q 191.5 115.4 196.7 109.5 L 196.7 109.5 L 196.7 109.5 Q 202.4 103.2 212.2 103.2 L 212.2 103.2 L 212.2 103.2 Q 218.2 103.2 221.3 105.7 L 221.3 105.7 L 221.3 105.7 Q 223.5 107.6 223.5 110.8 L 223.5 110.8 L 223.5 110.8 Q 223.5 122 204 122 L 204 122 L 204 122 Q 203.8 123.7 203.8 125.1 L 203.8 125.1 L 203.8 125.1 Q 203.8 128.1 205.1 129.2 L 205.1 129.2 L 205.1 129.2 Q 206.4 130.3 208.8 130.3 L 208.8 130.3 L 208.8 130.3 Q 211.3 130.3 213.9 129.2 L 213.9 129.2 L 213.9 129.2 Q 216.5 128.1 217.5 126.3 Z M 204.5 119.3 L 204.5 119.3 L 204.5 119.3 Q 209 119.3 211.7 116.5 L 211.7 116.5 L 211.7 116.5 Q 214.3 113.8 214.3 109.5 L 214.3 109.5 L 214.3 109.5 Q 214.3 108 213.7 107.2 L 213.7 107.2 L 213.7 107.2 Q 213.2 106.4 212.1 106.4 L 212.1 106.4 L 212.1 106.4 Q 211 106.4 210.1 106.8 L 210.1 106.8 L 210.1 106.8 Q 209.2 107.3 208.2 108.7 L 208.2 108.7 L 208.2 108.7 Q 205.8 111.9 204.5 119.3 Z M 244.8 114.6 L 244.8 114.6 L 244.8 114.6 Q 245.7 112.2 245.7 110.2 L 245.7 110.2 L 245.7 110.2 Q 245.7 106.4 242.6 106.4 L 242.6 106.4 L 242.6 106.4 Q 241 106.4 239.7 107.9 L 239.7 107.9 L 239.7 107.9 Q 238.4 109.3 238.4 111.1 L 238.4 111.1 L 238.4 111.1 Q 238.4 112.4 239.4 113.4 L 239.4 113.4 L 239.4 113.4 Q 240.9 114.8 244.7 117.1 L 244.7 117.1 L 244.7 117.1 Q 248.5 119.4 249.9 121.3 L 249.9 121.3 L 249.9 121.3 Q 251.3 123.2 251.3 125.8 L 251.3 125.8 L 251.3 125.8 Q 251.3 128.4 250.1 130.7 L 250.1 130.7 L 250.1 130.7 Q 248.8 133.1 246.6 134.8 L 246.6 134.8 L 246.6 134.8 Q 241.8 138.4 234.1 138.4 L 234.1 138.4 L 234.1 138.4 Q 230 138.4 226.8 136.2 L 226.8 136.2 L 226.8 136.2 Q 223.6 134.1 223.6 131.6 L 223.6 131.6 L 223.6 131.6 Q 223.6 129.1 225.4 127.6 L 225.4 127.6 L 225.4 127.6 Q 227.2 126.1 229.9 126.1 L 229.9 126.1 L 229.9 126.1 Q 232.6 126.1 234.2 127.2 L 234.2 127.2 L 234.2 127.2 Q 233.4 129.3 233.4 130.7 L 233.4 130.7 L 233.4 130.7 Q 233.4 134.9 237 134.9 L 237 134.9 L 237 134.9 Q 238.5 134.9 239.6 133.9 L 239.6 133.9 L 239.6 133.9 Q 240.6 133 240.6 131.3 L 240.6 131.3 L 240.6 131.3 Q 240.6 128.1 235.1 124.6 L 235.1 124.6 L 235.1 124.6 Q 230.6 121.7 229.6 120.5 L 229.6 120.5 L 229.6 120.5 Q 227.8 118.5 227.8 115.9 L 227.8 115.9 L 227.8 115.9 Q 227.8 113.3 229.1 110.9 L 229.1 110.9 L 229.1 110.9 Q 230.3 108.5 232.5 106.7 L 232.5 106.7 L 232.5 106.7 Q 237.2 103.2 245.3 103.2 L 245.3 103.2 L 245.3 103.2 Q 249.5 103.2 251.9 104.8 L 251.9 104.8 L 251.9 104.8 Q 254.4 106.5 254.4 109.3 L 254.4 109.3 L 254.4 109.3 Q 254.4 112.1 252.7 113.7 L 252.7 113.7 L 252.7 113.7 Q 251 115.3 247.9 115.3 L 247.9 115.3 L 247.9 115.3 Q 245.8 115.3 244.8 114.6 Z M 295.9 116.5 L 308.8 115.3 L 308.8 115.3 Q 304.2 125.4 304.2 137.1 L 304.2 137.1 L 304.2 137.1 Q 302.5 138.4 299.9 138.4 L 299.9 138.4 L 299.9 138.4 Q 297.4 138.4 295.8 137.2 L 295.8 137.2 L 295.8 137.2 Q 294.2 136 293.9 134.8 L 293.9 134.8 L 293.9 134.8 Q 292.3 136.4 289.7 137.4 L 289.7 137.4 L 289.7 137.4 Q 287.1 138.4 284.4 138.4 L 284.4 138.4 L 284.4 138.4 Q 281.6 138.4 279.2 137.5 L 279.2 137.5 L 279.2 137.5 Q 276.8 136.6 274.9 134.6 L 274.9 134.6 L 274.9 134.6 Q 270.9 130.2 270.9 122 L 270.9 122 L 270.9 122 Q 270.9 109.2 277.7 101.5 L 277.7 101.5 L 277.7 101.5 Q 284.7 93.6 297.2 93.6 L 297.2 93.6 L 297.2 93.6 Q 305.9 93.6 308.9 98 L 308.9 98 L 308.9 98 Q 309.9 99.4 309.9 101.1 L 309.9 101.1 L 309.9 101.1 Q 309.9 102.8 309.2 104.3 L 309.2 104.3 L 309.2 104.3 Q 308.4 105.7 307.3 106.9 L 307.3 106.9 L 307.3 106.9 Q 304.5 109.4 301.1 109.4 L 301.1 109.4 L 301.1 109.4 Q 299.8 109.4 298.5 109 L 298.5 109 L 298.5 109 Q 298.8 107.1 298.8 104.8 L 298.8 104.8 L 298.8 104.8 Q 298.8 102.6 298.6 101.6 L 298.6 101.6 L 298.6 101.6 Q 298.4 100.5 298.1 99.7 L 298.1 99.7 L 298.1 99.7 Q 297.2 98 295.4 98 L 295.4 98 L 295.4 98 Q 293.6 98 291.6 99.9 L 291.6 99.9 L 291.6 99.9 Q 289.5 101.9 287.9 105.1 L 287.9 105.1 L 287.9 105.1 Q 284.4 112.2 284.4 120.9 L 284.4 120.9 L 284.4 120.9 Q 284.4 124.9 286 127.7 L 286 127.7 L 286 127.7 Q 287.6 130.7 290.6 130.7 L 290.6 130.7 L 290.6 130.7 Q 291.6 130.7 292.5 130.2 L 292.5 130.2 L 292.5 130.2 Q 293.4 129.7 293.8 129.3 L 293.8 129.3 L 295.9 116.5 Z M 314.7 135.2 L 314.7 135.2 L 314.7 135.2 Q 313.2 133.5 312.5 130.9 L 312.5 130.9 L 312.5 130.9 Q 311.9 128.2 311.9 124 L 311.9 124 L 311.9 124 Q 311.9 119.7 313.3 115.8 L 313.3 115.8 L 313.3 115.8 Q 314.8 111.9 317.5 109 L 317.5 109 L 317.5 109 Q 323 103.2 332.1 103.2 L 332.1 103.2 L 332.1 103.2 Q 335.4 103.2 337.7 104.2 L 337.7 104.2 L 348.7 103.2 L 343.9 128.1 L 343.9 128.1 Q 343.7 128.9 343.7 130.3 L 343.7 130.3 L 343.7 130.3 Q 343.7 131.7 344.6 132.6 L 344.6 132.6 L 344.6 132.6 Q 345.5 133.5 346.8 133.6 L 346.8 133.6 L 346.8 133.6 Q 346.1 135.8 343.8 137.1 L 343.8 137.1 L 343.8 137.1 Q 341.4 138.4 338.8 138.4 L 338.8 138.4 L 338.8 138.4 Q 336.2 138.4 334.4 137.4 L 334.4 137.4 L 334.4 137.4 Q 332.7 136.4 332.2 134.7 L 332.2 134.7 L 332.2 134.7 Q 331.1 136.3 329 137.3 L 329 137.3 L 329 137.3 Q 326.8 138.4 323.9 138.4 L 323.9 138.4 L 323.9 138.4 Q 321 138.4 318.6 137.6 L 318.6 137.6 L 318.6 137.6 Q 316.2 136.8 314.7 135.2 Z M 328.2 109.2 L 328.2 109.2 L 328.2 109.2 Q 327.5 110.3 326.9 112.3 L 326.9 112.3 L 326.9 112.3 Q 326.2 114.2 325.2 119.4 L 325.2 119.4 L 325.2 119.4 Q 324.1 124.7 324.1 128.4 L 324.1 128.4 L 324.1 128.4 Q 324.1 132.1 324.7 133.2 L 324.7 133.2 L 324.7 133.2 Q 325.3 134.3 326.3 134.3 L 326.3 134.3 L 326.3 134.3 Q 328.3 134.3 329.8 132.3 L 329.8 132.3 L 329.8 132.3 Q 331.3 130.4 331.9 126.9 L 331.9 126.9 L 335.3 108.1 L 335.3 108.1 Q 334 107 332.4 107 L 332.4 107 L 332.4 107 Q 330.8 107 329.9 107.5 L 329.9 107.5 L 329.9 107.5 Q 329 108 328.2 109.2 Z M 367.4 133.6 L 367.4 133.6 L 367.4 133.6 Q 365.4 138.4 359.1 138.4 L 359.1 138.4 L 359.1 138.4 Q 355.9 138.4 353.9 136.1 L 353.9 136.1 L 353.9 136.1 Q 352.2 134.3 352.2 132.1 L 352.2 132.1 L 352.2 132.1 Q 352.2 127.3 354.4 116.9 L 354.4 116.9 L 359.1 92.3 L 372.1 91 L 365.9 123.4 L 365.9 123.4 Q 364.8 128.1 364.8 129.8 L 364.8 129.8 L 364.8 129.8 Q 364.8 133.4 367.4 133.6 Z M 388.2 133.6 L 388.2 133.6 L 388.2 133.6 Q 386.2 138.4 379.8 138.4 L 379.8 138.4 L 379.8 138.4 Q 376.6 138.4 374.6 136.1 L 374.6 136.1 L 374.6 136.1 Q 372.9 134.3 372.9 132.1 L 372.9 132.1 L 372.9 132.1 Q 372.9 127.3 375.2 116.9 L 375.2 116.9 L 379.8 92.3 L 392.8 91 L 386.6 123.4 L 386.6 123.4 Q 385.5 128.1 385.5 129.8 L 385.5 129.8 L 385.5 129.8 Q 385.5 133.4 388.2 133.6 Z M 419.5 126.3 L 419.5 126.3 L 419.5 126.3 Q 421.1 127.3 421.1 129.7 L 421.1 129.7 L 421.1 129.7 Q 421.1 132.1 419.9 133.7 L 419.9 133.7 L 419.9 133.7 Q 418.7 135.2 416.7 136.2 L 416.7 136.2 L 416.7 136.2 Q 412.6 138.4 408.2 138.4 L 408.2 138.4 L 408.2 138.4 Q 403.8 138.4 401.2 137.4 L 401.2 137.4 L 401.2 137.4 Q 398.6 136.4 396.9 134.6 L 396.9 134.6 L 396.9 134.6 Q 393.5 131.3 393.5 125 L 393.5 125 L 393.5 125 Q 393.5 115.4 398.7 109.5 L 398.7 109.5 L 398.7 109.5 Q 404.4 103.2 414.1 103.2 L 414.1 103.2 L 414.1 103.2 Q 420.2 103.2 423.2 105.7 L 423.2 105.7 L 423.2 105.7 Q 425.5 107.6 425.5 110.8 L 425.5 110.8 L 425.5 110.8 Q 425.5 122 406 122 L 406 122 L 406 122 Q 405.8 123.7 405.8 125.1 L 405.8 125.1 L 405.8 125.1 Q 405.8 128.1 407.1 129.2 L 407.1 129.2 L 407.1 129.2 Q 408.4 130.3 410.8 130.3 L 410.8 130.3 L 410.8 130.3 Q 413.3 130.3 415.8 129.2 L 415.8 129.2 L 415.8 129.2 Q 418.4 128.1 419.5 126.3 Z M 406.5 119.3 L 406.5 119.3 L 406.5 119.3 Q 411 119.3 413.6 116.5 L 413.6 116.5 L 413.6 116.5 Q 416.3 113.8 416.3 109.5 L 416.3 109.5 L 416.3 109.5 Q 416.3 108 415.7 107.2 L 415.7 107.2 L 415.7 107.2 Q 415.2 106.4 414.1 106.4 L 414.1 106.4 L 414.1 106.4 Q 413 106.4 412.1 106.8 L 412.1 106.8 L 412.1 106.8 Q 411.1 107.3 410.2 108.7 L 410.2 108.7 L 410.2 108.7 Q 407.8 111.9 406.5 119.3 Z M 447.7 119.1 L 447.7 119.1 L 447.7 119.1 Q 450 115 450 110.8 L 450 110.8 L 450 110.8 Q 450 108.1 448 108.1 L 448 108.1 L 448 108.1 Q 446.5 108.1 444.9 110.7 L 444.9 110.7 L 444.9 110.7 Q 443.2 113.3 442.7 116.7 L 442.7 116.7 L 439.4 137.1 L 426.1 138.4 L 432.6 104.4 L 443.2 103.2 L 442.1 109.6 L 442.1 109.6 Q 445.2 103.2 452.2 103.2 L 452.2 103.2 L 452.2 103.2 Q 455.9 103.2 458 105.1 L 458 105.1 L 458 105.1 Q 460 107 460 110.9 L 460 110.9 L 460 110.9 Q 460 114.9 457.4 117.4 L 457.4 117.4 L 457.4 117.4 Q 454.8 119.9 450.4 119.9 L 450.4 119.9 L 450.4 119.9 Q 448.5 119.9 447.7 119.1 Z M 481.3 129.8 L 481.3 129.8 L 481.3 129.8 Q 478 133.3 471.9 133.3 L 471.9 133.3 L 471.9 133.3 Q 464.3 133.3 462.7 127.7 L 462.7 127.7 L 462.7 127.7 Q 462.2 126.1 462.2 124.2 L 462.2 124.2 L 462.2 124.2 Q 462.2 122.4 462.6 120.4 L 462.6 120.4 L 465.6 104.4 L 478.6 103.2 L 475.1 121.8 L 475.1 121.8 Q 474.9 122.6 474.8 123.5 L 474.8 123.5 L 474.8 123.5 Q 474.6 124.4 474.6 125.3 L 474.6 125.3 L 474.6 125.3 Q 474.6 126.3 474.9 126.9 L 474.9 126.9 L 474.9 126.9 Q 475.2 127.5 475.7 127.9 L 475.7 127.9 L 475.7 127.9 Q 476.4 128.4 477.8 128.4 L 477.8 128.4 L 477.8 128.4 Q 479.2 128.4 480.4 126.7 L 480.4 126.7 L 480.4 126.7 Q 481.5 125 482.1 122.2 L 482.1 122.2 L 485.6 104.4 L 498.2 103.2 L 493.4 128.3 L 493.4 128.3 Q 491.1 140.6 486.2 145.5 L 486.2 145.5 L 486.2 145.5 Q 483.7 148 480.5 148.9 L 480.5 148.9 L 480.5 148.9 Q 477.3 149.9 473.1 149.9 L 473.1 149.9 L 473.1 149.9 Q 466.4 149.9 462.5 147.8 L 462.5 147.8 L 462.5 147.8 Q 458.7 145.7 458.7 142.2 L 458.7 142.2 L 458.7 142.2 Q 458.7 139.6 460.7 138.1 L 460.7 138.1 L 460.7 138.1 Q 462.7 136.6 465.7 136.6 L 465.7 136.6 L 465.7 136.6 Q 468.4 136.6 470.5 137.7 L 470.5 137.7 L 470.5 137.7 Q 471.7 138.4 472.3 139.3 L 472.3 139.3 L 472.3 139.3 Q 470.8 140.6 470.8 142.7 L 470.8 142.7 L 470.8 142.7 Q 470.8 145.5 473.3 145.5 L 473.3 145.5 L 473.3 145.5 Q 477.6 145.5 480 135.8 L 480 135.8 L 480 135.8 Q 480.7 132.9 481.3 129.8 Z" fill="url(#editing-gradient-gradient)"></path></g></g><style>text {
  font-size: 64px;
  font-family: Arial Black;
  dominant-baseline: central;
  text-anchor: middle;
}</style></svg>